{
    "asset" : {
        "generator" : "Khronos glTF Blender I/O v1.5.17",
        "version" : "2.0"
    },
    "scene" : 0,
    "scenes" : [
        {
            "name" : "Scene",
            "nodes" : [
                0
            ]
        }
    ],
    "nodes" : [
        {
            "mesh" : 0,
            "name" : "node_MeshObject-688171328-PolyPaper15",
            "rotation" : [
                0,
                -0.7893736362457275,
                0,
                0.6139132380485535
            ],
            "scale" : [
                0.10000000149011612,
                0.10000000149011612,
                0.10000000149011612
            ]
        }
    ],
    "materials" : [
        {
            "name" : "BlocksPaper",
            "pbrMetallicRoughness" : {
                "metallicFactor" : 0,
                "roughnessFactor" : 0.6000000238418579
            }
        }
    ],
    "meshes" : [
        {
            "name" : "mesh_m0-PolyPaper15_-71144",
            "primitives" : [
                {
                    "attributes" : {
                        "POSITION" : 0,
                        "NORMAL" : 1,
                        "COLOR_0" : 2
                    },
                    "indices" : 3,
                    "material" : 0
                }
            ]
        }
    ],
    "accessors" : [
        {
            "bufferView" : 0,
            "componentType" : 5126,
            "count" : 5414,
            "max" : [
                0.6599640250205994,
                1.6374664306640625,
                0.010033599101006985
            ],
            "min" : [
                -0.19999036192893982,
                0.30996882915496826,
                -0.7900044918060303
            ],
            "type" : "VEC3"
        },
        {
            "bufferView" : 1,
            "componentType" : 5126,
            "count" : 5414,
            "type" : "VEC3"
        },
        {
            "bufferView" : 2,
            "componentType" : 5123,
            "count" : 5414,
            "normalized" : true,
            "type" : "VEC4"
        },
        {
            "bufferView" : 3,
            "componentType" : 5123,
            "count" : 5538,
            "type" : "SCALAR"
        }
    ],
    "bufferViews" : [
        {
            "buffer" : 0,
            "byteLength" : 64968,
            "byteOffset" : 0
        },
        {
            "buffer" : 0,
            "byteLength" : 64968,
            "byteOffset" : 64968
        },
        {
            "buffer" : 0,
            "byteLength" : 43312,
            "byteOffset" : 129936
        },
        {
            "buffer" : 0,
            "byteLength" : 11076,
            "byteOffset" : 173248
        }
    ],
    "buffers" : [
        {
            "byteLength" : 184324,
            "uri" : "data:application/octet-stream;base64,"
        }
    ]
}
