{
    "asset" : {
        "generator" : "Khronos glTF Blender I/O v1.5.17",
        "version" : "2.0"
    },
    "scene" : 0,
    "scenes" : [
        {
            "name" : "Scene",
            "nodes" : [
                0
            ]
        }
    ],
    "nodes" : [
        {
            "mesh" : 0,
            "name" : "node_MeshObject1482809344-PolyPaper21",
            "rotation" : [
                0,
                0.6922172904014587,
                0,
                0.7216891646385193
            ],
            "scale" : [
                0.10000000149011612,
                0.10000000149011612,
                0.10000000149011612
            ]
        }
    ],
    "materials" : [
        {
            "name" : "BlocksPaper.001",
            "pbrMetallicRoughness" : {
                "metallicFactor" : 0,
                "roughnessFactor" : 0.6000000238418579
            }
        }
    ],
    "meshes" : [
        {
            "name" : "mesh_m0-PolyPaper21_-29110",
            "primitives" : [
                {
                    "attributes" : {
                        "POSITION" : 0,
                        "NORMAL" : 1,
                        "COLOR_0" : 2
                    },
                    "indices" : 3,
                    "material" : 0
                }
            ]
        }
    ],
    "accessors" : [
        {
            "bufferView" : 0,
            "componentType" : 5126,
            "count" : 1819,
            "max" : [
                0.3400612473487854,
                1.3099744319915771,
                0.2700134217739105
            ],
            "min" : [
                -2.1900951862335205,
                -0.6900813579559326,
                -2.029905319213867
            ],
            "type" : "VEC3"
        },
        {
            "bufferView" : 1,
            "componentType" : 5126,
            "count" : 1819,
            "type" : "VEC3"
        },
        {
            "bufferView" : 2,
            "componentType" : 5123,
            "count" : 1819,
            "normalized" : true,
            "type" : "VEC4"
        },
        {
            "bufferView" : 3,
            "componentType" : 5123,
            "count" : 1872,
            "type" : "SCALAR"
        }
    ],
    "bufferViews" : [
        {
            "buffer" : 0,
            "byteLength" : 21828,
            "byteOffset" : 0
        },
        {
            "buffer" : 0,
            "byteLength" : 21828,
            "byteOffset" : 21828
        },
        {
            "buffer" : 0,
            "byteLength" : 14552,
            "byteOffset" : 43656
        },
        {
            "buffer" : 0,
            "byteLength" : 3744,
            "byteOffset" : 58208
        }
    ],
    "buffers" : [
        {
            "byteLength" : 61952,
            "uri" : "data:application/octet-stream;base64,"
        }
    ]
}
